<?xml version="1.0" standalone="no"?><!DOCTYPE svg PUBLIC "-//W3C//DTD SVG 1.1//EN" "http://www.w3.org/Graphics/SVG/1.1/DTD/svg11.dtd"><svg t="1546507104822" class="icon" style="" viewBox="0 0 1024 1024" version="1.1" xmlns="http://www.w3.org/2000/svg" p-id="2087" xmlns:xlink="http://www.w3.org/1999/xlink" width="200" height="200"><defs><style type="text/css"></style></defs><path d="M913.9 273.4H110.3c-13.8 0-25-11.2-25-25s11.2-25 25-25h803.5c13.8 0 25 11.2 25 25s-11.1 25-24.9 25zM658.6 156.8h-293c-13.8 0-25-11.2-25-25s11.2-25 25-25h293c13.8 0 25 11.2 25 25s-11.2 25-25 25z" p-id="2088"></path><path d="M660.4 907.8H363.8c-83.5 0-151.5-68-151.5-151.5V273.5c0-13.8 11.2-25 25-25s25 11.2 25 25v482.8c0 56 45.5 101.5 101.5 101.5h296.6c56 0 101.5-45.5 101.5-101.5V273.5c0-13.8 11.2-25 25-25s25 11.2 25 25v482.8c0 83.6-68 151.5-151.5 151.5z" p-id="2089"></path><path d="M425.5 704.2c-13.8 0-25-11.2-25-25V438.9c0-13.8 11.2-25 25-25s25 11.2 25 25v240.2c0 13.9-11.1 25.1-25 25.1zM598.7 704.2c-13.8 0-25-11.2-25-25V438.9c0-13.8 11.2-25 25-25s25 11.2 25 25v240.2c0 13.9-11.2 25.1-25 25.1z" p-id="2090"></path></svg>